PathFileType	4	(X/Y/Z)	Patient4_TMGait_0pt3_03_left_07.trc.trc
DataRate	CameraRate	NumFrames	NumMarkers	Units	OrigDataRate	OrigDataStartFrame	OrigNumFrames
52.830188679245	52.830188679245	4	33	mm	52.830188679245	71	       141
Frame#	Time	Sacral			L.Shoulder			Chest			R.Shoulder			Neck			R.ASIS			L.ASIS			R.Thigh.Superior			R.Thigh.Lateral			R.Thigh.Inferior			R.Patella			L.Thigh.Superior			L.Thigh.Lateral			L.Thigh.Inferior			L.Patella			L.Shank.Superior			L.Shank.Lateral			L.Shank.Inferior			R.Shank.Superior			R.Shank.Lateral			R.Shank.Inferior			R.Heel			R.Midfoot.Superior			R.Midfoot.Lateral			R.Toe			L.Heel			L.Midfoot.Lateral			L.Midfoot.Superior			L.Toe			L.Elbow			L.Wrist			R.Elbow			R.Wrist			
		X1	Y1	Z1	X2	Y2	Z2	X3	Y3	Z3	X4	Y4	Z4	X5	Y5	Z5	X6	Y6	Z6	X7	Y7	Z7	X8	Y8	Z8	X9	Y9	Z9	X10	Y10	Z10	X11	Y11	Z11	X12	Y12	Z12	X13	Y13	Z13	X14	Y14	Z14	X15	Y15	Z15	X16	Y16	Z16	X17	Y17	Z17	X18	Y18	Z18	X19	Y19	Z19	X20	Y20	Z20	X21	Y21	Z21	X22	Y22	Z22	X23	Y23	Z23	X24	Y24	Z24	X25	Y25	Z25	X26	Y26	Z26	X27	Y27	Z27	X28	Y28	Z28	X29	Y29	Z29	X30	Y30	Z30	X31	Y31	Z31	X32	Y32	Z32	X33	Y33	Z33	

71	13.555000000000	732.446298671858	1013.987900773942	391.516243841366	985.379183586391	1430.859037986665	256.058556567768	1033.520708587648	1358.944311511216	438.573043632153	909.888547494144	1441.362968291139	581.170261222840	925.801652889295	1493.925278254021	405.242907754195	928.067885313505	946.393133430612	560.138401381624	974.917176015950	954.213286299850	289.093085032901	999.881033347871	768.304738473471	541.471194234192	943.747228226901	651.018409091797	609.235920134743	1035.284661134049	606.432787630784	537.642802357476	1061.113424274082	519.989976411552	561.006864371288	984.300493767738	730.184293129039	327.750491411370	891.244119128084	623.223454181325	254.023253411185	951.321729417128	538.377423154144	331.925473712894	940.279418747354	469.122040909355	340.614481852573	901.704786631740	402.019989441062	328.512187987640	801.163802602017	301.653664076735	270.259525108026	824.336120424872	185.781531539346	345.993109443093	1032.157004096479	431.272297871886	570.717570889916	958.192606786866	330.563009086828	634.340145596323	1014.565687126531	232.977694143206	588.114202884478	894.534023897368	57.687851968611	562.345383068439	1062.071782798906	117.038716496127	603.281220239558	979.234783637037	46.246612209902	634.541417730209	1184.029997235182	72.448215750032	627.086558932641	674.143362187679	40.901348640199	379.380058738560	750.962530224527	36.200604902872	302.418559546720	835.191041601308	95.515815691301	332.699511367148	962.954544466101	39.320912206574	307.026261024536	1122.220401024995	1137.682973120805	106.253596692475	1375.755592397851	1083.171856717718	138.077058364665	733.825582591174	1132.669142527592	651.978181162573	709.714810332630	872.439224198096	667.029874043468	
72	13.573928571429	732.864427157093	1012.930433868464	393.607563502460	987.111903018572	1429.399597088893	259.890019642747	1033.836267499034	1357.650333728730	442.823084380378	909.257584585626	1440.614816152956	584.293104997353	926.419315041326	1492.697179428041	408.469716716561	926.998175334725	944.805614585225	563.919889539532	975.993436567296	952.947471487037	293.086889209187	996.911587976067	765.099068852974	546.088089614624	938.411610270837	648.241501041937	612.690473327975	1030.012359753970	603.518923738536	541.333020337291	1055.597923442082	519.654663818042	563.375701681039	982.637344963062	728.529799571120	331.092739072281	888.808972472023	622.821661911301	255.704365042869	947.119403859289	537.055178447473	333.558514795820	935.007708101371	468.121030185933	341.906692328191	896.660925622833	401.330887450113	329.472049466617	795.995385255697	301.324840604871	270.730683301592	818.670184469158	185.290226337133	346.350028736648	1031.557333802676	430.464889936807	573.611909123469	963.548278609913	325.506558208273	638.295746098625	1025.135082360363	230.666016144281	591.750883883929	913.920962631130	49.563537466467	567.485876023255	1079.540725126582	116.133922446721	606.470456691182	1000.112794610471	41.304726128937	638.476671118596	1204.193690547168	76.590354300042	628.630377838649	668.344154133057	40.516921662986	379.279752917726	745.156437125470	35.973018281603	302.333584493317	829.279524073427	95.401058220784	332.802818237769	957.151715334795	39.361031869324	307.111318035461	1128.949370616644	1139.735024608460	110.209212199640	1384.079931835388	1095.161793366436	143.419061532269	732.605069490530	1132.100894025896	653.629044340841	710.535305610600	871.421266122588	667.697595336976	
73	13.592857142857	733.572641116645	1011.438234600049	396.269940159285	988.460181460927	1427.743034668278	264.036376429343	1034.186811625218	1356.169551558147	447.271186649716	908.873208008529	1439.486498076877	587.905485728827	926.952155740632	1491.211111122898	412.130239289069	926.534885769946	942.844817747186	567.865471013963	977.267045916101	951.498454415686	297.208847937420	994.948416452196	761.832381883119	550.660884427540	934.275539581366	645.194227755301	615.954092781598	1026.115505742510	600.626276466922	544.869813760549	1051.099413374853	518.719022794265	565.559379169139	981.430743187753	726.753668268663	334.457800672435	886.742433224802	622.279846839605	257.600606417398	943.373777551226	535.631318731250	335.299472523328	930.232807448026	466.980406402678	343.325425498978	892.005770674747	400.489021007831	330.562611140105	791.049632654208	300.993537082819	271.310278436085	813.119564258704	184.732499017199	346.752380858272	1031.046068625905	429.162836310308	576.190457479666	967.737638045075	321.094219424054	641.508619870340	1033.250269745683	228.627191051703	594.629646733131	928.875050170275	44.006504948279	571.426633094290	1092.945660236688	115.325645433138	608.768441724187	1016.000630368945	37.980757303830	641.461281699005	1219.253700483686	79.197070999880	629.645944873020	662.538920521979	40.131918643713	379.196628885220	739.354839613143	35.748908028889	302.257975389427	823.367011268503	95.294529000069	332.916315318246	951.354066473330	39.390330548096	307.189438992339	1134.898122585675	1141.254829891313	114.622271954982	1391.209477448186	1106.102463776715	148.911619342339	732.682925200582	1130.560360090667	656.130413127089	712.928348318768	869.458291015412	669.404209972449	
74	13.611785714286	734.596752640358	1009.652291036856	399.510344413336	989.465982011748	1426.030150722778	268.506195245163	1034.597673038923	1354.643064290102	451.938675840746	908.731158537197	1438.109422334811	592.015367845882	927.408302587861	1489.596299456635	416.238526452198	926.729421547166	940.682069894128	571.996306928892	978.764748262352	949.994903368719	301.477592235347	994.153481298334	758.761362581081	555.117660897316	931.583923228304	642.083251769952	618.972007486201	1023.843952013299	597.971260781532	548.216561582113	1047.931521829145	517.328919904261	567.556503595567	980.644681999896	724.921374435110	337.826512516447	884.941566009186	621.700031768927	259.719094587332	939.992488644641	534.180191727251	337.134339658267	925.874426041525	465.775639898782	344.851631116425	887.658467090010	399.586811740860	331.765643022878	786.248031051102	300.740071837333	272.000053986548	807.661639740451	184.175057028942	347.179865154911	1030.840479297863	427.447026917284	578.427600864244	970.830001318256	317.324834870359	643.952319079503	1038.942697686313	226.708639994051	596.701859513170	939.157125508565	40.643040712667	574.081056208806	1102.225582049538	114.367708903474	610.184169182980	1026.701162998041	35.989270989235	643.522150078434	1229.266007299878	79.996225994164	630.294267952428	656.730051459795	39.785893102928	379.129858991329	733.563099995419	35.545488240733	302.195722053483	817.470977009875	95.209287870340	333.023195157944	945.570891113935	39.404141848593	307.252703548912	1140.008514597177	1142.302624404603	119.453710235413	1397.136054591977	1115.926321640059	154.529267420439	733.958878695020	1128.239075565487	659.482446784626	716.712454829264	866.764826547125	672.186142073551	
